<svg version="1.1" xmlns="http://www.w3.org/2000/svg" style="display: block;" viewBox="0 0 2048 2048" width="1024" height="1024" preserveAspectRatio="none">
<path transform="translate(0,0)" fill="rgb(0,0,0)" d="M 537 880.431 C 570.532 880.335 600.136 886.944 626.395 909.11 C 685.674 959.146 688.442 1068.09 638.205 1125.22 C 612.606 1154.33 582.111 1164.56 544.75 1166.96 C 467.298 1169.34 415.18 1115.07 410.151 1039.71 C 404.501 955.053 448.178 885.67 537 880.431 z M 553.018 1112.76 C 607.165 1100.72 616.68 1037.79 606.172 991.731 C 597.307 952.875 572.54 930.582 532.076 934.325 C 485.927 942.957 472.603 984.72 472.678 1026.8 C 472.764 1075.54 499.173 1119.28 553.018 1112.76 z"/>
<path transform="translate(0,0)" fill="rgb(0,0,0)" d="M 716.147 885.056 C 755.135 885.457 835.333 880.344 869.577 893.908 C 886.089 900.448 899.829 911.535 906.777 928.272 C 914.843 947.701 914.51 974.316 906.463 993.682 C 896.616 1017.38 878.698 1029.96 855.751 1039.55 C 879.554 1050.75 893.616 1080.49 906.5 1102.3 C 918.387 1122.1 930.147 1141.97 941.781 1161.92 L 893.79 1162.06 C 886.823 1162.08 879.76 1161.97 872.783 1161.92 C 853.569 1131.99 836.846 1093.2 813.816 1066.25 C 805.342 1056.33 789.255 1057 777.26 1057.08 L 776.939 1162.05 L 716.887 1162.03 C 714.905 1136.57 716.142 1095.22 716.132 1068.34 L 716.147 885.056 z M 837.184 998.137 C 846.763 986.642 849.72 976.37 848.123 961.618 C 844.2 925.372 802.214 931.083 777.267 930.927 L 777.308 1009.97 C 799.299 1010.11 819.584 1013 837.184 998.137 z"/>
<path transform="translate(0,0)" fill="rgb(0,0,0)" d="M 126.849 885.149 C 147.652 884.89 170.303 885.229 191.3 885.213 C 201.022 898.376 218.599 928.63 228.117 943.792 C 254.548 985.896 284.846 1030.9 308.896 1074.15 C 308.182 1011.13 308.016 948.106 308.397 885.083 C 328.675 885.84 344.934 885.554 365.15 885.082 L 365.084 1088.75 C 365.096 1098.52 366.045 1158.23 363.798 1161.97 L 305.041 1161.92 C 289.843 1141.34 269.934 1107.74 255.601 1085.05 C 231.184 1046.39 204.38 1005.5 181.827 966.067 C 183.745 990.158 183.006 1019.59 182.991 1044.17 L 183.042 1162.05 L 126.752 1161.95 C 125.922 1147.26 126.365 1128.98 126.406 1114.07 L 126.595 1034.67 C 126.619 987.541 124.936 931.393 126.849 885.149 z"/>
<path transform="translate(0,0)" fill="rgb(0,0,0)" d="M 1355.7 885.263 C 1365.24 884.828 1375.82 885.743 1385.5 885.698 C 1395.89 885.651 1406.25 885.23 1416.62 885.547 C 1415.13 915.385 1416.12 952.725 1416.11 982.991 L 1416.21 1162.16 L 1355.66 1162.26 L 1355.96 1047.03 C 1319.82 1046.45 1282.4 1046.91 1246.18 1046.94 C 1246.87 1084.92 1245.26 1123.61 1246.33 1161.95 C 1226.21 1161.87 1206.09 1161.95 1185.96 1162.17 L 1185.94 885.385 C 1206.02 885.448 1225.66 885.995 1245.98 885.914 C 1245.98 922.15 1246.48 958.855 1246.14 995.015 C 1280.54 994.996 1322.38 993.923 1355.98 995.926 L 1355.7 885.263 z"/>
<path transform="translate(0,0)" fill="rgb(0,169,229)" d="M 1849.45 885.027 C 1872.27 884.84 1895.09 884.846 1917.92 885.046 C 1900.24 919.261 1877.17 952.808 1858.98 987.019 C 1852.8 998.635 1844.88 1009.5 1838.64 1021.42 C 1866.19 1067.4 1892.58 1114.09 1920.43 1159.87 C 1920.4 1160.48 1920.36 1161.1 1920.33 1161.71 L 1917.25 1161.97 C 1895.79 1162.88 1870.18 1162.89 1848.66 1162.41 C 1841.09 1150.13 1830.56 1127.85 1823.95 1114.59 C 1816.6 1099.83 1801.85 1072.21 1797.37 1057.1 C 1791.55 1071.77 1782.16 1089.71 1774.95 1104 C 1765.44 1122.85 1755.07 1143.78 1744.55 1161.98 L 1673.98 1162.1 C 1677.73 1155.01 1681.96 1147.68 1686.2 1140.84 C 1710.11 1102.26 1731.88 1060.9 1757.45 1023.48 C 1733.14 982.437 1710.65 940.03 1686.89 898.649 C 1684.31 894.166 1681.95 889.826 1679.87 885.08 L 1751.11 885.043 C 1757.14 895.214 1764.35 911.147 1769.63 922.26 C 1779.75 943.559 1791.01 966.585 1799.26 988.519 C 1813.29 954.102 1831.52 917.845 1849.45 885.027 z"/>
<path transform="translate(0,0)" fill="rgb(0,169,229)" d="M 1453.12 885.042 L 1665.21 885.078 C 1665.78 901.556 1665.44 918.652 1665.33 935.189 L 1590.07 935.06 L 1590.05 1089.5 C 1590 1113.7 1590.11 1137.89 1590.36 1162.08 C 1570.27 1162.06 1549.2 1162.68 1528.97 1162.87 C 1528.46 1088.9 1528.24 1009.43 1529.33 935.627 C 1505.09 934.715 1477.37 935.061 1453.07 935.349 L 1453.12 885.042 z"/>
<path transform="translate(0,0)" fill="rgb(0,0,0)" d="M 938.962 885.383 C 949.733 884.813 964.115 885.989 975.713 885.732 C 1033.78 884.932 1091.85 884.765 1149.91 885.231 L 1149.96 934.82 L 1074.64 935.077 C 1073.34 984.678 1074.28 1037.72 1074.35 1087.5 C 1074.56 1109.84 1073.43 1141.03 1074.7 1161.89 L 1013.61 1161.85 C 1014.92 1087.44 1013.95 1009.6 1013.91 935.009 C 988.653 935.141 963.395 935.109 938.138 934.913 C 938.089 920.32 937.64 899.618 938.962 885.383 z"/>
</svg>